<?xml version="1.0" encoding="UTF-8"?>
<svg width="25.327" height="28.945" version="1.1" viewBox="0 0 25.327 28.945" xmlns="http://www.w3.org/2000/svg" xmlns:cc="http://creativecommons.org/ns#" xmlns:dc="http://purl.org/dc/elements/1.1/" xmlns:rdf="http://www.w3.org/1999/02/22-rdf-syntax-ns#">
 <metadata>
  <rdf:RDF>
   <cc:Work rdf:about="">
    <dc:format>image/svg+xml</dc:format>
    <dc:type rdf:resource="http://purl.org/dc/dcmitype/StillImage"/>
    <dc:title/>
   </cc:Work>
  </rdf:RDF>
 </metadata>
 <path id="icon-finish" transform="translate(0)" d="M3.618,0a2.107,2.107,0,0,0-.687.109A3.645,3.645,0,0,0,.109,2.931,1.451,1.451,0,0,0,0,3.618v19.9a5.42,5.42,0,0,0,5.427,5.427h19.9V25.327H5.427a1.809,1.809,0,1,1,0-3.618h19.9V1.809A1.791,1.791,0,0,0,23.518,0H21.709V10.854L18.09,7.236l-3.618,3.618V0Z" fill="#a79576"/>
</svg>
